HIERARCHY
ROOT hip
{
  OFFSET 0 90.174 2.4664
  CHANNELS 6 Xposition Yposition Zposition Zrotation Xrotation Yrotation
  JOINT abdomen
  {
    OFFSET 0 -1.186 -1.5018
    CHANNELS 6 Xposition Yposition Zposition Zrotation Xrotation Yrotation
    JOINT abdomen2
    {
      OFFSET 0 9.964 0.2134
      CHANNELS 6 Xposition Yposition Zposition Zrotation Xrotation Yrotation
      JOINT chest
      {
        OFFSET 0 13.134 -3.2573
        CHANNELS 6 Xposition Yposition Zposition Zrotation Xrotation Yrotation
        JOINT neck
        {
          OFFSET 0 20.686 -1.6905
          CHANNELS 6 Xposition Yposition Zposition Zrotation Xrotation Yrotation
          JOINT head
          {
            OFFSET 0 7.238 -0.1237
            CHANNELS 6 Xposition Yposition Zposition Zrotation Xrotation Yrotation
            End Site
            {
              OFFSET 0 0 0
            }
          }
        }
        JOINT lCollar
        {
          OFFSET 1.7069 20.075 5.0056
          CHANNELS 6 Xposition Yposition Zposition Zrotation Xrotation Yrotation
          JOINT lShldr
          {
            OFFSET 13.6458 -0.047 -4.849
            CHANNELS 6 Xposition Yposition Zposition Zrotation Xrotation Yrotation
            JOINT lForeArm
            {
              OFFSET 28.3255 -0.9759 2.2888
              CHANNELS 6 Xposition Yposition Zposition Zrotation Xrotation Yrotation
              JOINT lHand
              {
                OFFSET 22.1583 -0.53 10.8316
                CHANNELS 6 Xposition Yposition Zposition Zrotation Xrotation Yrotation
                JOINT lThumb1
                {
                  OFFSET 0.786 0.112 2.5817
                  CHANNELS 6 Xposition Yposition Zposition Zrotation Xrotation Yrotation
                  JOINT lThumb2
                  {
                    OFFSET 0.3601 -0.878 4.2331
                    CHANNELS 6 Xposition Yposition Zposition Zrotation Xrotation Yrotation
                    JOINT lThumb2_End
                    {
                      OFFSET 1.8127 -1.216 2.2227
                      CHANNELS 6 Xposition Yposition Zposition Zrotation Xrotation Yrotation
                      End Site
                      {
                        OFFSET 0.0181 -0.0122 0.0222
                      }
                    }
                  }
                }
                JOINT lCarpal1
                {
                  OFFSET 0.9571 1.114 1.7695
                  CHANNELS 6 Xposition Yposition Zposition Zrotation Xrotation Yrotation
                  JOINT lIndex1
                  {
                    OFFSET 4.1246 0.487 4.1451
                    CHANNELS 6 Xposition Yposition Zposition Zrotation Xrotation Yrotation
                    JOINT lIndex2
                    {
                      OFFSET 3.4052 -1.454 2.7682
                      CHANNELS 6 Xposition Yposition Zposition Zrotation Xrotation Yrotation
                      JOINT lIndex2_End
                      {
                        OFFSET 1.4531 -1.795 1.2713
                        CHANNELS 6 Xposition Yposition Zposition Zrotation Xrotation Yrotation
                        End Site
                        {
                          OFFSET 0.0145 -0.0179 0.0127
                        }
                      }
                    }
                  }
                  JOINT lMid1
                  {
                    OFFSET 5.6954 0.21 2.1184
                    CHANNELS 6 Xposition Yposition Zposition Zrotation Xrotation Yrotation
                    JOINT lMid2
                    {
                      OFFSET 3.9766 -1.54 2.3863
                      CHANNELS 6 Xposition Yposition Zposition Zrotation Xrotation Yrotation
                      JOINT lMid2_End
                      {
                        OFFSET 1.4042 -1.926 1.125
                        CHANNELS 6 Xposition Yposition Zposition Zrotation Xrotation Yrotation
                        End Site
                        {
                          OFFSET 0.014 -0.0193 0.0113
                        }
                      }
                    }
                  }
                }
                JOINT lCarpal2
                {
                  OFFSET 2.0956 0.66 -0.3894
                  CHANNELS 6 Xposition Yposition Zposition Zrotation Xrotation Yrotation
                  JOINT lRing1
                  {
                    OFFSET 5.0395 -0.09 2.4971
                    CHANNELS 6 Xposition Yposition Zposition Zrotation Xrotation Yrotation
                    JOINT lRing2
                    {
                      OFFSET 3.7921 -1.552 1.4806
                      CHANNELS 6 Xposition Yposition Zposition Zrotation Xrotation Yrotation
                      JOINT lRing2_End
                      {
                        OFFSET 1.4655 -1.808 0.9609
                        CHANNELS 6 Xposition Yposition Zposition Zrotation Xrotation Yrotation
                        End Site
                        {
                          OFFSET 0.0147 -0.0181 0.0096
                        }
                      }
                    }
                  }
                  JOINT lPinky1
                  {
                    OFFSET 4.9141 -1.269 0.3591
                    CHANNELS 6 Xposition Yposition Zposition Zrotation Xrotation Yrotation
                    JOINT lPinky2
                    {
                      OFFSET 3.1477 -1.685 0.8462
                      CHANNELS 6 Xposition Yposition Zposition Zrotation Xrotation Yrotation
                      JOINT lPinky2_End
                      {
                        OFFSET 0.8055 -1.585 0.7955
                        CHANNELS 6 Xposition Yposition Zposition Zrotation Xrotation Yrotation
                        End Site
                        {
                          OFFSET 0.0081 -0.0158 0.008
                        }
                      }
                    }
                  }
                }
              }
            }
          }
        }
        JOINT rCollar
        {
          OFFSET -1.7069 20.075 5.0056
          CHANNELS 6 Xposition Yposition Zposition Zrotation Xrotation Yrotation
          JOINT rShldr
          {
            OFFSET -13.6458 -0.047 -4.849
            CHANNELS 6 Xposition Yposition Zposition Zrotation Xrotation Yrotation
            JOINT rForeArm
            {
              OFFSET -28.3255 -0.9759 2.2888
              CHANNELS 6 Xposition Yposition Zposition Zrotation Xrotation Yrotation
              JOINT rHand
              {
                OFFSET -22.1583 -0.53 10.8316
                CHANNELS 6 Xposition Yposition Zposition Zrotation Xrotation Yrotation
                JOINT rThumb1
                {
                  OFFSET -0.786 0.112 2.5817
                  CHANNELS 6 Xposition Yposition Zposition Zrotation Xrotation Yrotation
                  JOINT rThumb2
                  {
                    OFFSET -0.3601 -0.878 4.2331
                    CHANNELS 6 Xposition Yposition Zposition Zrotation Xrotation Yrotation
                    JOINT rThumb2_End
                    {
                      OFFSET -1.8127 -1.216 2.2227
                      CHANNELS 6 Xposition Yposition Zposition Zrotation Xrotation Yrotation
                      End Site
                      {
                        OFFSET -0.0181 -0.0122 0.0222
                      }
                    }
                  }
                }
                JOINT rCarpal1
                {
                  OFFSET -0.9571 1.114 1.7695
                  CHANNELS 6 Xposition Yposition Zposition Zrotation Xrotation Yrotation
                  JOINT rIndex1
                  {
                    OFFSET -4.1246 0.487 4.1451
                    CHANNELS 6 Xposition Yposition Zposition Zrotation Xrotation Yrotation
                    JOINT rIndex2
                    {
                      OFFSET -3.4052 -1.454 2.7682
                      CHANNELS 6 Xposition Yposition Zposition Zrotation Xrotation Yrotation
                      JOINT rIndex2_End
                      {
                        OFFSET -1.4531 -1.795 1.2713
                        CHANNELS 6 Xposition Yposition Zposition Zrotation Xrotation Yrotation
                        End Site
                        {
                          OFFSET -0.0145 -0.018 0.0127
                        }
                      }
                    }
                  }
                  JOINT rMid1
                  {
                    OFFSET -5.6954 0.21 2.1184
                    CHANNELS 6 Xposition Yposition Zposition Zrotation Xrotation Yrotation
                    JOINT rMid2
                    {
                      OFFSET -3.9766 -1.54 2.3863
                      CHANNELS 6 Xposition Yposition Zposition Zrotation Xrotation Yrotation
                      JOINT rMid2_End
                      {
                        OFFSET -1.4042 -1.926 1.125
                        CHANNELS 6 Xposition Yposition Zposition Zrotation Xrotation Yrotation
                        End Site
                        {
                          OFFSET -0.014 -0.0193 0.0113
                        }
                      }
                    }
                  }
                }
                JOINT rCarpal2
                {
                  OFFSET -2.0956 0.66 -0.3894
                  CHANNELS 6 Xposition Yposition Zposition Zrotation Xrotation Yrotation
                  JOINT rRing1
                  {
                    OFFSET -5.0395 -0.09 2.4971
                    CHANNELS 6 Xposition Yposition Zposition Zrotation Xrotation Yrotation
                    JOINT rRing2
                    {
                      OFFSET -3.7921 -1.552 1.4806
                      CHANNELS 6 Xposition Yposition Zposition Zrotation Xrotation Yrotation
                      JOINT rRing2_End
                      {
                        OFFSET -1.4655 -1.808 0.9609
                        CHANNELS 6 Xposition Yposition Zposition Zrotation Xrotation Yrotation
                        End Site
                        {
                          OFFSET -0.0147 -0.0181 0.0096
                        }
                      }
                    }
                  }
                  JOINT rPinky1
                  {
                    OFFSET -4.9141 -1.269 0.3592
                    CHANNELS 6 Xposition Yposition Zposition Zrotation Xrotation Yrotation
                    JOINT rPinky2
                    {
                      OFFSET -3.1477 -1.685 0.8462
                      CHANNELS 6 Xposition Yposition Zposition Zrotation Xrotation Yrotation
                      JOINT rPinky2_End
                      {
                        OFFSET -0.8055 -1.585 0.7955
                        CHANNELS 6 Xposition Yposition Zposition Zrotation Xrotation Yrotation
                        End Site
                        {
                          OFFSET -0.0081 -0.0158 0.008
                        }
                      }
                    }
                  }
                }
              }
            }
          }
        }
      }
    }
  }
  JOINT lThigh
  {
    OFFSET 8.367 -8.2066 0.5982
    CHANNELS 6 Xposition Yposition Zposition Zrotation Xrotation Yrotation
    JOINT lShin
    {
      OFFSET 2.1923 -43.463 -0.4932
      CHANNELS 6 Xposition Yposition Zposition Zrotation Xrotation Yrotation
      JOINT lFoot
      {
        OFFSET 0.7333 -45.8593 -2.6451
        CHANNELS 6 Xposition Yposition Zposition Zrotation Xrotation Yrotation
        End Site
        {
          OFFSET 2.6618 -4.2699 12.3931
        }
      }
    }
  }
  JOINT rThigh
  {
    OFFSET -8.367 -8.2066 0.5982
    CHANNELS 6 Xposition Yposition Zposition Zrotation Xrotation Yrotation
    JOINT rShin
    {
      OFFSET -2.1923 -43.463 -0.4931
      CHANNELS 6 Xposition Yposition Zposition Zrotation Xrotation Yrotation
      JOINT rFoot
      {
        OFFSET -0.7333 -45.8593 -2.6451
        CHANNELS 6 Xposition Yposition Zposition Zrotation Xrotation Yrotation
        End Site
        {
          OFFSET -2.6618 -4.2699 12.3931
        }
      }
    }
  }
}
MOTION
Frames:	4
Frame Time:	0.0333333
0 90.174 2.4664 0 0 -0 0 -1.186 -1.5018 0 0 -0 0 9.964 0.2134 0 0 -0 0 13.134 -3.2573 0 0 -0 0 20.686 -1.6905 0 0 -0 0 7.238 -0.1237 0 0 -0 1.7069 20.075 5.0056 0 0 -0 13.6458 -0.047 -4.849 1.66051 0.0835086 5.75766 28.3255 -0.9759 2.2888 -0.0175111 0.895433 15.7816 22.1583 -0.53 10.8316 7.95139e-016 -1.98785e-016 -0 0.786 0.112 2.5817 5.46658e-016 -3.97569e-016 -0 0.3601 -0.878 4.2331 5.96354e-016 0 -0 1.8127 -1.216 2.2227 3.97569e-016 1.98785e-016 9.54166e-015 0.9571 1.114 1.7695 1.49089e-016 -3.97569e-016 -0 4.1246 0.487 4.1451 6.4605e-016 0 3.18055e-015 3.4052 -1.454 2.7682 5.96354e-016 0 3.18055e-015 1.4531 -1.795 1.2713 8.94531e-016 -1.98785e-016 6.36111e-015 5.6954 0.21 2.1184 6.4605e-016 0 3.18055e-015 3.9766 -1.54 2.3863 5.96354e-016 0 3.18055e-015 1.4042 -1.926 1.125 8.94531e-016 -1.98785e-016 6.36111e-015 2.0956 0.66 -0.3894 1.49089e-016 -3.97569e-016 -0 5.0395 -0.09 2.4971 6.4605e-016 0 3.18055e-015 3.7921 -1.552 1.4806 5.96354e-016 0 3.18055e-015 1.4655 -1.808 0.9609 8.94531e-016 -1.98785e-016 6.36111e-015 4.9141 -1.269 0.3591 6.4605e-016 0 3.18055e-015 3.1477 -1.685 0.8462 5.96354e-016 0 3.18055e-015 0.8055 -1.585 0.7955 8.94531e-016 -1.98785e-016 6.36111e-015 -1.7069 20.075 5.0056 0 0 -0 -13.6458 -0.047 -4.849 -1.4496 0.0636048 -5.0245 -28.3255 -0.9759 2.2888 -1.74811 1.20616 -16.8394 -22.1583 -0.53 10.8316 -1.19271e-015 1.98785e-016 -3.18055e-015 -0.786 0.112 2.5817 -3.97569e-016 1.98785e-016 -3.18055e-015 -0.3601 -0.878 4.2331 -2.98177e-016 1.98785e-016 -3.18055e-015 -1.8127 -1.216 2.2227 -2.98177e-016 3.97569e-016 -0 -0.9571 1.114 1.7695 4.96962e-016 0 -6.36111e-015 -4.1246 0.487 4.1451 -9.93923e-017 3.97569e-016 -0 -3.4052 -1.454 2.7682 -8.94531e-016 5.96354e-016 -0 -1.4531 -1.795 1.2713 -3.97569e-016 3.97569e-016 -0 -5.6954 0.21 2.1184 -9.93923e-017 3.97569e-016 -0 -3.9766 -1.54 2.3863 -8.94531e-016 5.96354e-016 -0 -1.4042 -1.926 1.125 -3.97569e-016 3.97569e-016 -0 -2.0956 0.66 -0.3894 4.96962e-016 0 -6.36111e-015 -5.0395 -0.09 2.4971 -9.93923e-017 3.97569e-016 -0 -3.7921 -1.552 1.4806 -8.94531e-016 5.96354e-016 -0 -1.4655 -1.808 0.9609 -3.97569e-016 3.97569e-016 -0 -4.9141 -1.269 0.3592 -9.93923e-017 3.97569e-016 -0 -3.1477 -1.685 0.8462 -8.94531e-016 5.96354e-016 -0 -0.8055 -1.585 0.7955 -3.97569e-016 3.97569e-016 -0 8.367 -8.2066 0.5982 -4.66115 -1.03232 0.120763 2.1923 -43.463 -0.4932 0.00990601 1.55097 0.177175 0.7333 -45.8593 -2.6451 4.65196 -0.54114 -0.255042 -8.367 -8.2066 0.5982 4.66115 -1.03222 -0.120763 -2.1923 -43.463 -0.4931 -0.00990459 1.5509 -0.177176 -0.7333 -45.8593 -2.6451 -4.65196 -0.541171 0.255041 
-1.86341 4.5081 29.2339 49.0036 0.652155 89.2426 0 -1.186 -1.5018 -0.457408 7.1704 -0.232689 0 9.964 0.2134 -0.895786 14.3424 -0.41201 0 13.134 -3.2573 -0.895783 14.3424 -0.412016 0 20.686 -1.6905 -2.0811e-005 -0.000108277 6.6576e-006 0 7.238 -0.1237 0.120164 0.274732 0.200766 1.7069 20.075 5.0056 -4.54555 -0.0679747 0.258037 13.6458 -0.047 -4.849 3.0225 0.136469 7.78035 28.3255 -0.9759 2.2888 16.4333 -3.90353 7.41577 22.1583 -0.53 10.8316 -90.2053 -15.1117 -12.648 0.786 0.112 2.5817 -3.18055e-015 3.18055e-015 -1.59028e-015 0.3601 -0.878 4.2331 9.08793e-007 -8.71034e-007 -1.12231e-006 1.8127 -1.216 2.2227 9.08793e-007 -8.71034e-007 -1.12231e-006 0.9571 1.114 1.7695 -3.18055e-015 3.18055e-015 -1.59028e-015 4.1246 0.487 4.1451 -3.18055e-015 -6.36111e-015 -0 3.4052 -1.454 2.7682 9.08793e-007 -8.71034e-007 -1.12231e-006 1.4531 -1.795 1.2713 9.08793e-007 -8.71034e-007 -1.12231e-006 5.6954 0.21 2.1184 -3.18055e-015 -6.36111e-015 -0 3.9766 -1.54 2.3863 9.08793e-007 -8.71034e-007 -1.12231e-006 1.4042 -1.926 1.125 9.08793e-007 -8.71034e-007 -1.12231e-006 2.0956 0.66 -0.3894 -3.18055e-015 3.18055e-015 -1.59028e-015 5.0395 -0.09 2.4971 -3.18055e-015 -6.36111e-015 -0 3.7921 -1.552 1.4806 9.08793e-007 -8.71034e-007 -1.12231e-006 1.4655 -1.808 0.9609 9.08793e-007 -8.71034e-007 -1.12231e-006 4.9141 -1.269 0.3591 -3.18055e-015 -6.36111e-015 -0 3.1477 -1.685 0.8462 9.08793e-007 -8.71034e-007 -1.12231e-006 0.8055 -1.585 0.7955 9.08793e-007 -8.71034e-007 -1.12231e-006 -1.7069 20.075 5.0056 30.7622 -4.5591 0.697611 -13.6458 -0.047 -4.849 16.8832 -1.31137 -8.90299 -28.3255 -0.9759 2.2888 14.4747 2.39634 19.8559 -22.1583 -0.53 10.8316 1.65992 19.9264 16.6601 -0.786 0.112 2.5817 1.38927e-006 5.73107e-007 -7.03934e-007 -0.3601 -0.878 4.2331 -4.43523e-007 2.68255e-007 6.57907e-006 -1.8127 -1.216 2.2227 -1.12762e-006 3.0096e-006 2.67831e-006 -0.9571 1.114 1.7695 4.41391e-031 -3.18055e-015 7.95139e-015 -4.1246 0.487 4.1451 1.38927e-006 5.73107e-007 -7.03934e-007 -3.4052 -1.454 2.7682 -4.43523e-007 2.68255e-007 6.57907e-006 -1.4531 -1.795 1.2713 -1.12762e-006 3.0096e-006 2.67831e-006 -5.6954 0.21 2.1184 1.38927e-006 5.73107e-007 -7.03934e-007 -3.9766 -1.54 2.3863 -4.43523e-007 2.68255e-007 6.57907e-006 -1.4042 -1.926 1.125 -1.12762e-006 3.0096e-006 2.67831e-006 -2.0956 0.66 -0.3894 4.41391e-031 -3.18055e-015 7.95139e-015 -5.0395 -0.09 2.4971 1.38927e-006 5.73107e-007 -7.03934e-007 -3.7921 -1.552 1.4806 -4.43523e-007 2.68255e-007 6.57907e-006 -1.4655 -1.808 0.9609 -1.12762e-006 3.0096e-006 2.67831e-006 -4.9141 -1.269 0.3592 1.38927e-006 5.73107e-007 -7.03934e-007 -3.1477 -1.685 0.8462 -4.43523e-007 2.68255e-007 6.57907e-006 -0.8055 -1.585 0.7955 -1.12762e-006 3.0096e-006 2.67831e-006 8.367 -8.2066 0.5982 175.858 -64.7783 -171.036 2.1923 -43.463 -0.4932 -177.987 43.8881 -172.607 0.7333 -45.8593 -2.6451 6.78061 47.0838 2.75214 -8.367 -8.2066 0.5982 -97.1452 -46.6744 -102.997 -2.1923 -43.463 -0.4931 157.889 59.16 -166.437 -0.7333 -45.8593 -2.6451 -2.90972 17.1301 5.1808 
-1.86341 4.50809 29.2339 49.0036 0.652152 89.2426 3.55271e-015 -1.186 -1.5018 -0.457388 7.17044 -0.232751 0 9.964 0.2134 -0.895785 14.3424 -0.412005 -3.55271e-015 13.134 -3.2573 -0.895775 14.3424 -0.412024 0 20.686 -1.6905 -6.23774e-005 -5.98508e-005 -2.90507e-006 0 7.238 -0.1237 0.27661 0.529128 0.375118 1.7069 20.075 5.0056 -4.54555 -0.0679696 0.258037 13.6458 -0.047 -4.849 3.0225 0.136473 7.78035 28.3255 -0.9759 2.2888 16.4333 -3.90354 7.41577 22.1583 -0.53 10.8316 -90.2053 -15.1116 -12.648 0.786 0.112 2.5817 -6.36111e-015 2.22639e-014 7.95139e-015 0.3601 -0.878 4.2331 9.08794e-007 -8.71035e-007 -1.12231e-006 1.8127 -1.216 2.2227 -3.18055e-015 0 -1.59028e-015 0.9571 1.114 1.7695 -3.18055e-015 6.36111e-015 6.36111e-015 4.1246 0.487 4.1451 -6.36111e-015 2.54444e-014 1.11319e-014 3.4052 -1.454 2.7682 9.08794e-007 -8.71035e-007 -1.12231e-006 1.4531 -1.795 1.2713 -3.18055e-015 3.18055e-015 1.59028e-015 5.6954 0.21 2.1184 -6.36111e-015 2.54444e-014 1.11319e-014 3.9766 -1.54 2.3863 9.08794e-007 -8.71035e-007 -1.12231e-006 1.4042 -1.926 1.125 -3.18055e-015 3.18055e-015 1.59028e-015 2.0956 0.66 -0.3894 -3.18055e-015 6.36111e-015 6.36111e-015 5.0395 -0.09 2.4971 -6.36111e-015 2.54444e-014 1.11319e-014 3.7921 -1.552 1.4806 9.08794e-007 -8.71035e-007 -1.12231e-006 1.4655 -1.808 0.9609 -3.18055e-015 3.18055e-015 1.59028e-015 4.9141 -1.269 0.3591 -6.36111e-015 2.54444e-014 1.11319e-014 3.1477 -1.685 0.8462 9.08794e-007 -8.71035e-007 -1.12231e-006 0.8055 -1.585 0.7955 -3.18055e-015 3.18055e-015 1.59028e-015 -1.7069 20.075 5.0056 30.7622 -4.5591 0.697606 -13.6458 -0.047 -4.849 16.8832 -1.31137 -8.90299 -28.3255 -0.9759 2.2888 14.4298 2.32669 19.6479 -22.1583 -0.53 10.8316 1.51877 19.8682 16.656 -0.786 0.112 2.5817 -6.36111e-015 -6.36111e-015 -0 -0.3601 -0.878 4.2331 -6.36111e-015 -6.36111e-015 -1.59028e-015 -1.8127 -1.216 2.2227 -9.54166e-015 -6.36111e-015 -9.54166e-015 -0.9571 1.114 1.7695 -3.18055e-015 -6.36111e-015 1.59028e-015 -4.1246 0.487 4.1451 3.18055e-015 0 1.59028e-015 -3.4052 -1.454 2.7682 -3.18055e-015 -6.36111e-015 -0 -1.4531 -1.795 1.2713 -3.18055e-015 -1.27222e-014 -0 -5.6954 0.21 2.1184 3.18055e-015 0 1.59028e-015 -3.9766 -1.54 2.3863 -3.18055e-015 -6.36111e-015 -0 -1.4042 -1.926 1.125 -3.18055e-015 -1.27222e-014 -0 -2.0956 0.66 -0.3894 -3.18055e-015 -6.36111e-015 1.59028e-015 -5.0395 -0.09 2.4971 3.18055e-015 0 1.59028e-015 -3.7921 -1.552 1.4806 -3.18055e-015 -6.36111e-015 -0 -1.4655 -1.808 0.9609 -3.18055e-015 -1.27222e-014 -0 -4.9141 -1.269 0.3592 3.18055e-015 0 1.59028e-015 -3.1477 -1.685 0.8462 -3.18055e-015 -6.36111e-015 -0 -0.8055 -1.585 0.7955 -3.18055e-015 -1.27222e-014 -0 8.367 -8.2066 0.5982 175.858 -64.7778 -171.036 2.1923 -43.463 -0.4932 -177.987 43.8877 -172.607 0.7333 -45.8593 -2.6451 6.78059 47.0837 2.75217 -8.367 -8.2066 0.5982 -97.1452 -46.6744 -102.997 -2.1923 -43.463 -0.4931 157.889 59.1601 -166.437 -0.7333 -45.8593 -2.6451 -2.90972 17.1301 5.1808 
-1.86342 4.5081 29.2339 49.0036 0.652155 89.2426 0 -1.186 -1.5018 -0.457423 7.17041 -0.232713 3.55271e-015 9.964 0.2134 -0.895787 14.3424 -0.412009 3.55271e-015 13.134 -3.2573 -0.895783 14.3424 -0.412016 0 20.686 -1.6905 -1.04584e-005 -4.62281e-005 -8.84203e-006 -3.55271e-015 7.238 -0.1237 0.4324 0.784187 0.548875 1.7069 20.075 5.0056 -4.54555 -0.0679746 0.258037 13.6458 -0.047 -4.849 3.0225 0.136473 7.78034 28.3255 -0.9759 2.2888 16.4333 -3.90354 7.41577 22.1583 -0.53 10.8316 -90.2053 -15.1117 -12.6479 0.786 0.112 2.5817 -9.08793e-007 8.71034e-007 1.12231e-006 0.3601 -0.878 4.2331 -9.08793e-007 8.71034e-007 1.12231e-006 1.8127 -1.216 2.2227 -1.27222e-014 -3.18055e-015 3.18055e-015 0.9571 1.114 1.7695 -6.36111e-015 -3.18055e-015 -4.77083e-015 4.1246 0.487 4.1451 -9.08793e-007 8.71034e-007 1.12231e-006 3.4052 -1.454 2.7682 -9.08793e-007 8.71034e-007 1.12231e-006 1.4531 -1.795 1.2713 -1.27222e-014 0 3.18055e-015 5.6954 0.21 2.1184 -9.08793e-007 8.71034e-007 1.12231e-006 3.9766 -1.54 2.3863 -9.08793e-007 8.71034e-007 1.12231e-006 1.4042 -1.926 1.125 -1.27222e-014 0 3.18055e-015 2.0956 0.66 -0.3894 -6.36111e-015 -3.18055e-015 -4.77083e-015 5.0395 -0.09 2.4971 -9.08793e-007 8.71034e-007 1.12231e-006 3.7921 -1.552 1.4806 -9.08793e-007 8.71034e-007 1.12231e-006 1.4655 -1.808 0.9609 -1.27222e-014 0 3.18055e-015 4.9141 -1.269 0.3591 -9.08793e-007 8.71034e-007 1.12231e-006 3.1477 -1.685 0.8462 -9.08793e-007 8.71034e-007 1.12231e-006 0.8055 -1.585 0.7955 -1.27222e-014 0 3.18055e-015 -1.7069 20.075 5.0056 30.7622 -4.5591 0.697609 -13.6458 -0.047 -4.849 16.8832 -1.31137 -8.90299 -28.3255 -0.9759 2.2888 14.3845 2.25716 19.4397 -22.1583 -0.53 10.8316 1.37763 19.8101 16.6517 -0.786 0.112 2.5817 -2.07969e-006 2.40511e-006 -1.49311e-006 -0.3601 -0.878 4.2331 4.75713e-007 4.04094e-007 3.82125e-006 -1.8127 -1.216 2.2227 6.36111e-015 1.90833e-014 -3.02153e-014 -0.9571 1.114 1.7695 3.18055e-015 -3.18055e-015 6.36111e-015 -4.1246 0.487 4.1451 -2.07969e-006 2.40511e-006 -1.49311e-006 -3.4052 -1.454 2.7682 4.75713e-007 4.04094e-007 3.82125e-006 -1.4531 -1.795 1.2713 3.18055e-015 1.59028e-014 -3.02153e-014 -5.6954 0.21 2.1184 -2.07969e-006 2.40511e-006 -1.49311e-006 -3.9766 -1.54 2.3863 4.75713e-007 4.04094e-007 3.82125e-006 -1.4042 -1.926 1.125 3.18055e-015 1.59028e-014 -3.02153e-014 -2.0956 0.66 -0.3894 3.18055e-015 -3.18055e-015 6.36111e-015 -5.0395 -0.09 2.4971 -2.07969e-006 2.40511e-006 -1.49311e-006 -3.7921 -1.552 1.4806 4.75713e-007 4.04094e-007 3.82125e-006 -1.4655 -1.808 0.9609 3.18055e-015 1.59028e-014 -3.02153e-014 -4.9141 -1.269 0.3592 -2.07969e-006 2.40511e-006 -1.49311e-006 -3.1477 -1.685 0.8462 4.75713e-007 4.04094e-007 3.82125e-006 -0.8055 -1.585 0.7955 3.18055e-015 1.59028e-014 -3.02153e-014 8.367 -8.2066 0.5982 175.858 -64.7784 -171.036 2.1923 -43.463 -0.4932 -177.987 43.8882 -172.607 0.7333 -45.8593 -2.6451 6.78061 47.0837 2.75215 -8.367 -8.2066 0.5982 -97.1452 -46.6744 -102.997 -2.1923 -43.463 -0.4931 157.889 59.16 -166.437 -0.7333 -45.8593 -2.6451 -2.90974 17.1301 5.18081 
